<svg width="414" height="896" viewBox="0 0 414 896" fill="none" xmlns="http://www.w3.org/2000/svg">
  <rect width="414" height="896" fill="#F8FAFC"/>
  <rect y="0" width="414" height="80" fill="#FFFFFF"/>
  <rect x="20" y="30" width="200" height="24" rx="4" fill="#1E293B"/>
  <rect x="20" y="60" width="160" height="16" rx="4" fill="#94A3B8"/>
  <rect x="354" y="30" width="40" height="40" rx="20" fill="#3B82F6"/>
  
  <rect x="20" y="100" width="374" height="50" rx="8" fill="#FFFFFF"/>
  <rect x="40" y="118" width="200" height="14" rx="4" fill="#CBD5E1"/>
  <circle cx="360" cy="125" r="12" fill="#E2E8F0"/>

  <rect x="20" y="160" width="60" height="30" rx="15" fill="#3B82F6"/>
  <rect x="90" y="160" width="60" height="30" rx="15" fill="#E2E8F0"/>
  <rect x="160" y="160" width="60" height="30" rx="15" fill="#E2E8F0"/>
  <rect x="230" y="160" width="60" height="30" rx="15" fill="#E2E8F0"/>
  
  <rect x="20" y="200" width="60" height="30" rx="15" fill="#1E293B"/>
  <rect x="90" y="200" width="60" height="30" rx="15" fill="#E2E8F0"/>
  <rect x="160" y="200" width="60" height="30" rx="15" fill="#E2E8F0"/>

  <rect x="20" y="250" width="374" height="100" rx="8" fill="#FFFFFF"/>
  <circle cx="34" cy="270" r="4" fill="#10B981"/>
  <rect x="48" y="262" width="200" height="16" rx="4" fill="#1E293B"/>
  <circle cx="34" cy="312" r="14" fill="#EEF2FF"/>
  <rect x="58" y="308" width="100" height="12" rx="4" fill="#94A3B8"/>
  <rect x="320" y="308" width="60" height="24" rx="12" fill="#DBEAFE"/>
  <rect x="332" y="314" width="36" height="12" rx="4" fill="#3B82F6"/>
  
  <rect x="20" y="360" width="374" height="100" rx="8" fill="#FFFFFF"/>
  <circle cx="34" cy="380" r="4" fill="#EF4444"/>
  <rect x="48" y="372" width="200" height="16" rx="4" fill="#1E293B"/>
  <circle cx="34" cy="422" r="14" fill="#EEF2FF"/>
  <rect x="58" y="418" width="100" height="12" rx="4" fill="#94A3B8"/>
  <rect x="320" y="418" width="60" height="24" rx="12" fill="#FEE2E2"/>
  <rect x="332" y="424" width="36" height="12" rx="4" fill="#EF4444"/>
  
  <rect x="20" y="470" width="374" height="100" rx="8" fill="#FFFFFF"/>
  <circle cx="34" cy="490" r="4" fill="#A3A3A3"/>
  <rect x="48" y="482" width="200" height="16" rx="4" fill="#1E293B"/>
  <circle cx="34" cy="532" r="14" fill="#EEF2FF"/>
  <rect x="58" y="528" width="100" height="12" rx="4" fill="#94A3B8"/>
  <rect x="320" y="528" width="60" height="24" rx="12" fill="#F3F4F6"/>
  <rect x="332" y="534" width="36" height="12" rx="4" fill="#6B7280"/>
  
  <circle cx="374" cy="836" r="30" fill="#3B82F6"/>
  <rect x="364" y="826" width="20" height="20" rx="2" fill="#FFFFFF"/>
</svg>
