<svg width="1280" height="800" viewBox="0 0 1280 800" fill="none" xmlns="http://www.w3.org/2000/svg">
  <rect width="1280" height="800" fill="#F8FAFC"/>
  <rect x="0" y="0" width="1280" height="80" fill="#FFFFFF"/>
  <rect x="40" y="20" width="300" height="30" rx="4" fill="#1E293B"/>
  <rect x="40" y="55" width="200" height="16" rx="4" fill="#94A3B8"/>
  <rect x="1000" y="20" width="100" height="40" rx="6" fill="#4F46E5"/>
  <rect x="1120" y="20" width="100" height="40" rx="6" fill="#EF4444"/>
  
  <rect x="240" y="120" width="800" height="60" rx="8" fill="#FFFFFF"/>
  <rect x="270" y="143" width="300" height="14" rx="4" fill="#CBD5E1"/>
  <circle cx="1000" cy="150" r="12" fill="#E2E8F0"/>

  <rect x="240" y="190" width="100" height="40" rx="20" fill="#3B82F6"/>
  <rect x="350" y="190" width="100" height="40" rx="20" fill="#E2E8F0"/>
  <rect x="460" y="190" width="100" height="40" rx="20" fill="#E2E8F0"/>
  <rect x="570" y="190" width="100" height="40" rx="20" fill="#E2E8F0"/>
  <rect x="680" y="190" width="100" height="40" rx="20" fill="#E2E8F0"/>
  
  <rect x="240" y="240" width="100" height="40" rx="20" fill="#1E293B"/>
  <rect x="350" y="240" width="100" height="40" rx="20" fill="#E2E8F0"/>
  <rect x="460" y="240" width="100" height="40" rx="20" fill="#E2E8F0"/>

  <rect x="240" y="300" width="800" height="450" rx="8" fill="#FFFFFF"/>
  
  <rect x="260" y="320" width="760" height="1" fill="#E2E8F0"/>
  <rect x="260" y="350" width="240" height="20" rx="4" fill="#1E293B"/>
  <rect x="520" y="350" width="100" height="20" rx="4" fill="#94A3B8"/>
  <rect x="640" y="350" width="120" height="20" rx="4" fill="#94A3B8"/>
  <rect x="780" y="350" width="80" height="30" rx="15" fill="#DBEAFE"/>
  <rect x="880" y="350" width="40" height="20" rx="4" fill="#94A3B8"/>
  
  <rect x="260" y="380" width="760" height="1" fill="#E2E8F0"/>
  <rect x="260" y="410" width="240" height="20" rx="4" fill="#1E293B"/>
  <rect x="520" y="410" width="100" height="20" rx="4" fill="#94A3B8"/>
  <rect x="640" y="410" width="120" height="20" rx="4" fill="#94A3B8"/>
  <rect x="780" y="410" width="80" height="30" rx="15" fill="#FEE2E2"/>
  <rect x="880" y="410" width="40" height="20" rx="4" fill="#94A3B8"/>
  
  <rect x="260" y="440" width="760" height="1" fill="#E2E8F0"/>
  <rect x="260" y="470" width="240" height="20" rx="4" fill="#1E293B"/>
  <rect x="520" y="470" width="100" height="20" rx="4" fill="#94A3B8"/>
  <rect x="640" y="470" width="120" height="20" rx="4" fill="#94A3B8"/>
  <rect x="780" y="470" width="80" height="30" rx="15" fill="#F3F4F6"/>
  <rect x="880" y="470" width="40" height="20" rx="4" fill="#94A3B8"/>
  
  <rect x="260" y="500" width="760" height="1" fill="#E2E8F0"/>
  <rect x="260" y="530" width="240" height="20" rx="4" fill="#1E293B"/>
  <rect x="520" y="530" width="100" height="20" rx="4" fill="#94A3B8"/>
  <rect x="640" y="530" width="120" height="20" rx="4" fill="#94A3B8"/>
  <rect x="780" y="530" width="80" height="30" rx="15" fill="#DBEAFE"/>
  <rect x="880" y="530" width="40" height="20" rx="4" fill="#94A3B8"/>
</svg>
